# xmcd CD database file
#
# Track frame offsets:
#	150
#	30537
#	51652
#	87429
#	141717
#	159330
#
# Disc length: 2493 seconds
#
# Revision: 0
# Processed by: cddbd v1.5.1PL2 Copyright (c) Steve Scherf et al.
# Submitted via: CDex 1.50
#
DISCID=5309bb06
DTITLE=Kenny Drew - Sophisticated Lady
DYEAR=1900
DGENRE=Jazz
TTITLE0=Blues for Duane
TTITLE1=Serenity
TTITLE2=What's This Here Samba
TTITLE3=Bosko's Business
TTITLE4=Sophisticated Lady
TTITLE5=Crisis
EXTD=
EXTT0=
EXTT1=
EXTT2=
EXTT3=
EXTT4=
EXTT5=
PLAYORDER=
